<svg width="21" height="18" viewBox="0 0 21 18" fill="none" xmlns="http://www.w3.org/2000/svg">
<mask id="mask0_1_195" style="mask-type:luminance" maskUnits="userSpaceOnUse" x="0" y="0" width="21" height="18">
<path fill-rule="evenodd" clip-rule="evenodd" d="M0.55835 0.319824H20.5583V17.3198H0.55835V0.319824Z" fill="white"/>
</mask>
<g mask="url(#mask0_1_195)">
<path fill-rule="evenodd" clip-rule="evenodd" d="M20.5583 1.6857C20.4533 2.16105 20.3439 2.63544 20.2439 3.1119C19.5976 6.19308 18.9534 9.27474 18.3082 12.3562C18.0304 13.6833 17.7545 15.0108 17.4702 16.3365C17.4332 16.5088 17.3674 16.6798 17.2861 16.8359C17.0688 17.2529 16.7109 17.4102 16.2703 17.2694C16.0695 17.2053 15.8671 17.1114 15.6974 16.986C14.2601 15.9235 12.8301 14.8506 11.3978 13.781C11.346 13.7422 11.2928 13.7053 11.231 13.6608C11.1834 13.7022 11.1385 13.7377 11.0976 13.7776C10.3581 14.4963 9.61855 15.215 8.88035 15.9351C8.66041 16.1496 8.41013 16.2788 8.08119 16.2594C8.10842 15.8445 8.1334 15.443 8.16141 15.0417C8.22007 14.2014 8.28025 13.3612 8.34001 12.521C8.34943 12.3887 8.38327 12.2533 8.36625 12.1248C8.30191 11.6403 8.5689 11.3594 8.89503 11.0629C11.5465 8.65184 14.1852 6.22612 16.8277 3.80471C16.8664 3.76923 16.9166 3.73932 16.9395 3.69502C16.9813 3.61376 17.0068 3.52367 17.0391 3.43725C16.9499 3.4117 16.8512 3.34827 16.7734 3.36846C16.6131 3.40994 16.4523 3.47719 16.3118 3.56669C12.8675 5.76092 9.42579 7.95924 5.98439 10.1582C5.88772 10.22 5.80474 10.2541 5.68064 10.2142C4.22064 9.74398 2.75736 9.28452 1.29746 8.8139C1.12083 8.75696 0.94504 8.67186 0.793923 8.56345C0.509855 8.35969 0.475655 8.06138 0.72979 7.8205C0.915941 7.64404 1.14134 7.48745 1.37658 7.3921C2.6066 6.89349 3.84501 6.4165 5.08107 5.93339C9.77675 4.0984 14.4724 2.26335 19.1695 0.432021C19.3189 0.373752 19.4818 0.335401 19.6411 0.322918C20.0637 0.289879 20.3771 0.523118 20.5062 0.942055C20.5214 0.991401 20.5409 1.03947 20.5583 1.08813V1.6857Z" fill="white"/>
</g>
</svg>
